<svg width="25" height="25" viewBox="0 0 25 25" fill="none" xmlns="http://www.w3.org/2000/svg">
<path d="M7.29166 4.16666C7.29166 3.61413 7.51115 3.08422 7.90186 2.69352C8.29256 2.30282 8.82246 2.08333 9.37499 2.08333H15.625C16.1775 2.08333 16.7074 2.30282 17.0981 2.69352C17.4888 3.08422 17.7083 3.61413 17.7083 4.16666V6.24999H21.875C22.1513 6.24999 22.4162 6.35974 22.6116 6.55509C22.8069 6.75044 22.9167 7.01539 22.9167 7.29166C22.9167 7.56793 22.8069 7.83288 22.6116 8.02823C22.4162 8.22358 22.1513 8.33333 21.875 8.33333H20.7615L19.8583 20.9812C19.8209 21.5069 19.5857 21.9988 19.2001 22.3579C18.8145 22.717 18.3071 22.9167 17.7802 22.9167H7.21874C6.69181 22.9167 6.18444 22.717 5.79883 22.3579C5.41323 21.9988 5.17803 21.5069 5.14062 20.9812L4.23958 8.33333H3.12499C2.84873 8.33333 2.58378 8.22358 2.38843 8.02823C2.19307 7.83288 2.08333 7.56793 2.08333 7.29166C2.08333 7.01539 2.19307 6.75044 2.38843 6.55509C2.58378 6.35974 2.84873 6.24999 3.12499 6.24999H7.29166V4.16666ZM9.37499 6.24999H15.625V4.16666H9.37499V6.24999ZM6.32708 8.33333L7.21979 20.8333H17.7812L18.674 8.33333H6.32708ZM10.4167 10.4167C10.6929 10.4167 10.9579 10.5264 11.1532 10.7218C11.3486 10.9171 11.4583 11.1821 11.4583 11.4583V17.7083C11.4583 17.9846 11.3486 18.2495 11.1532 18.4449C10.9579 18.6402 10.6929 18.75 10.4167 18.75C10.1404 18.75 9.87544 18.6402 9.68009 18.4449C9.48474 18.2495 9.37499 17.9846 9.37499 17.7083V11.4583C9.37499 11.1821 9.48474 10.9171 9.68009 10.7218C9.87544 10.5264 10.1404 10.4167 10.4167 10.4167ZM14.5833 10.4167C14.8596 10.4167 15.1245 10.5264 15.3199 10.7218C15.5152 10.9171 15.625 11.1821 15.625 11.4583V17.7083C15.625 17.9846 15.5152 18.2495 15.3199 18.4449C15.1245 18.6402 14.8596 18.75 14.5833 18.75C14.3071 18.75 14.0421 18.6402 13.8468 18.4449C13.6514 18.2495 13.5417 17.9846 13.5417 17.7083V11.4583C13.5417 11.1821 13.6514 10.9171 13.8468 10.7218C14.0421 10.5264 14.3071 10.4167 14.5833 10.4167Z" fill="#ED1B11"/>
</svg>
