<svg width="25" height="25" viewBox="0 0 25 25" fill="none" xmlns="http://www.w3.org/2000/svg">
<path d="M7.29167 17.7219L11.8885 17.7062L21.9219 7.76875C22.3156 7.375 22.5323 6.85208 22.5323 6.29583C22.5323 5.73958 22.3156 5.21666 21.9219 4.82291L20.2698 3.17083C19.4823 2.38333 18.1083 2.38749 17.3271 3.1677L7.29167 13.1073V17.7219ZM18.7969 4.64375L20.4521 6.2927L18.7885 7.94062L17.1365 6.28958L18.7969 4.64375ZM9.37501 13.976L15.6563 7.75416L17.3083 9.40624L11.0281 15.626L9.37501 15.6312V13.976Z" fill="#244F75"/>
<path d="M5.20833 21.875H19.7917C20.9406 21.875 21.875 20.9406 21.875 19.7917V10.7625L19.7917 12.8458V19.7917H8.49792C8.47083 19.7917 8.44271 19.8021 8.41563 19.8021C8.38125 19.8021 8.34687 19.7927 8.31146 19.7917H5.20833V5.20833H12.3406L14.424 3.125H5.20833C4.05937 3.125 3.125 4.05937 3.125 5.20833V19.7917C3.125 20.9406 4.05937 21.875 5.20833 21.875Z" fill="#244F75"/>
</svg>
