<svg width="80" height="80" viewBox="0 0 80 80" fill="none" xmlns="http://www.w3.org/2000/svg">
<path d="M51.6667 66.4167L37.5 52.25L42.1667 47.5833L51.6667 57.0833L70.5 38.25L75.1667 42.9167L51.6667 66.4167ZM70 33.3333H63.3333V16.6667H56.6667V26.6667H23.3333V16.6667H16.6667V63.3333H36.6667V70H10V9.99999H30.5833C31.1944 8.05555 32.3889 6.45888 34.1667 5.20999C35.9444 3.96111 37.8889 3.33555 40 3.33333C42.2222 3.33333 44.2089 3.95888 45.96 5.20999C47.7111 6.46111 48.8911 8.05777 49.5 9.99999H70V33.3333ZM40 16.6667C40.9444 16.6667 41.7367 16.3467 42.3767 15.7067C43.0167 15.0667 43.3356 14.2756 43.3333 13.3333C43.3333 12.3889 43.0133 11.5978 42.3733 10.96C41.7333 10.3222 40.9422 10.0022 40 9.99999C39.0556 9.99999 38.2644 10.32 37.6267 10.96C36.9889 11.6 36.6689 12.3911 36.6667 13.3333C36.6667 14.2778 36.9867 15.07 37.6267 15.71C38.2667 16.35 39.0578 16.6689 40 16.6667Z" fill="#244F75"/>
</svg>
