<svg width="100" height="80" viewBox="0 0 100 80" fill="none" xmlns="http://www.w3.org/2000/svg">
<g clip-path="url(#clip0_17_2)">
<path d="M50 60H20V35H10V75C10 77.7656 12.2344 80 15 80H55C57.7656 80 60 77.7656 60 75V35H50V60ZM99.1562 22.2187L85.8281 2.21875C84.8906 0.828125 83.3281 0 81.6562 0H18.3437C16.6719 0 15.1094 0.828125 14.1875 2.21875L0.859372 22.2187C-1.35938 25.5469 1.01562 30 5.01562 30H95C98.9844 30 101.359 25.5469 99.1562 22.2187ZM80 77.5C80 78.875 81.125 80 82.5 80H87.5C88.875 80 90 78.875 90 77.5V35H80V77.5Z" fill="#244F75"/>
</g>
<defs>
<clipPath id="clip0_17_2">
<rect width="100" height="80" fill="white"/>
</clipPath>
</defs>
</svg>
